<!-- Generator: Adobe Illustrator 25.0.0, SVG Export Plug-In  -->
<svg version="1.1" xmlns="http://www.w3.org/2000/svg" xmlns:xlink="http://www.w3.org/1999/xlink" x="0px" y="0px"
	 width="262.096px" height="266.581px" viewBox="0 0 262.096 266.581"
	 style="overflow:visible;enable-background:new 0 0 262.096 266.581;" xml:space="preserve">
<style type="text/css">
	.st0{fill:#4477BB;}
	.st1{fill:#3E65AE;}
	.st2{fill:#F9BB87;}
	.st3{fill:#F2F2F2;}
	.st4{fill:#D9E5EC;}
	.st5{fill:#F18856;}
	.st6{fill:#FCD2A0;}
	.st7{fill:url(#XMLID_239_);}
	.st8{fill:url(#XMLID_240_);}
	.st9{opacity:0.6;fill:#EE9681;}
	.st10{fill:#7C4545;}
	.st11{fill:#673840;}
	.st12{fill:#512A3B;}
	.st13{fill:#E73555;}
	.st14{fill:#D80B46;}
	.st15{fill:#FFFFFF;}
	.st16{fill:#E76266;}
	.st17{fill:#A45757;}
	.st18{fill:#19313A;}
	.st19{fill:#F2AA75;}
	.st20{fill:#E7EEF2;}
	.st21{fill:#AA683A;}
	.st22{fill:#8E532B;}
	.st23{fill:#FECB2F;}
	.st24{fill:#FAB300;}
	.st25{fill:url(#XMLID_241_);}
	.st26{fill:url(#XMLID_242_);}
	.st27{fill:#C48349;}
	.st28{fill:#EDF2F4;}
	.st29{fill:#C9DAE2;}
	.st30{fill:#7AB951;}
	.st31{fill:#55B14A;}
	.st32{opacity:0.2;fill:#074959;}
	.st33{fill:#62B44D;}
	.st34{fill:#B0CF6D;}
	.st35{fill:#00A886;}
	.st36{fill:#FFE568;}
	.st37{fill:#FFDA60;}
	.st38{fill:url(#XMLID_243_);}
	.st39{fill:url(#XMLID_244_);}
	.st40{fill:url(#XMLID_245_);}
	.st41{fill:url(#XMLID_246_);}
</style>
<defs>
</defs>
<g id="XMLID_152_">
	<path id="XMLID_238_" class="st0" d="M184.963,118.488c0,0,3.234,10.22,7.285,11.38l-1.993,25.867h-22.596l-12.452-30.258
		c0,0,0.749-8.869,3.021-16.91L184.963,118.488z"/>
	<path id="XMLID_237_" class="st1" d="M163.081,113.638c-1.707,4.282-1.257,11.713,0.432,16.013
		c2.787,7.098,11.614,9.251,11.614,9.251s-2.535-7.647-0.299-14.192c0,0,2.101,6.819,5.525,8.629
		c3.424,1.809,11.895-3.471,11.895-3.471l-1.993,25.867h-22.596l-12.452-30.258c0,0,1.687-13.151,3.021-16.91L163.081,113.638z"/>
	<path id="XMLID_236_" class="st2" d="M146.036,123.334c-8.33-21.045,10.443-38.003,12.612-39.867l3.561,4.142
		c-6.772,5.823-16.729,19.477-11.094,33.715L146.036,123.334z"/>
	<path id="XMLID_235_" class="st2" d="M209.301,115.424c-8.832-4.683-12.977-12.261-15.194-16.315l5.591-3.058
		c2.506,4.579,7.168,13.103,18.513,16.013L209.301,115.424z"/>
	<path id="XMLID_234_" class="st3" d="M188.188,77.966c-1.734,0.305-2.065,5.068-1.014,11.991c1.051,6.922,4.57,13.289,4.57,13.289
		s8.171,3.036,13.049-6.197c0,0-6.394-5.915-9.778-10.891C191.097,80.396,190.987,77.474,188.188,77.966z"/>
	<path id="XMLID_233_" class="st4" d="M193.821,95.686c-4.868-3.84-5.938-18.219-4.256-17.618l0,0
		c-0.39-0.16-0.832-0.197-1.378-0.101c-1.734,0.305-2.065,5.068-1.014,11.991c1.051,6.922,4.57,13.288,4.57,13.288
		s8.171,3.036,13.049-6.197C204.792,97.048,198.69,99.526,193.821,95.686z"/>
	<path id="XMLID_232_" class="st2" d="M184.096,61.653l-3.743,11.85c0,0,1.761,5.38,7.826,3.424l4.069-7.716L184.096,61.653z"/>
	<path id="XMLID_231_" class="st5" d="M184.096,61.653l-0.575,1.822c0,0,0.667,4.472,3.055,6.773
		c2.388,2.302,3.871,2.378,3.871,2.378l1.801-3.416L184.096,61.653z"/>
	<path id="XMLID_230_" class="st6" d="M211.463,36.97c1.562,2.846,2.133,10.667,1.991,14.365c-0.142,3.698,1.607,5.12,0.021,9.245
		c-1.586,4.125-6.562,10.396-13.388,10.822c-6.827,0.427-16.909-7.551-16.909-12.813c0-3.834-0.023-16.462,3.111-21.618
		C190.698,29.716,207.48,29.716,211.463,36.97z"/>
	<linearGradient id="XMLID_239_" gradientUnits="userSpaceOnUse" x1="210.6576" y1="44.3576" x2="209.8147" y2="50.4046">
		<stop  offset="0" style="stop-color:#F9BB87"/>
		<stop  offset="1" style="stop-color:#FCD2A0"/>
	</linearGradient>
	<path id="XMLID_229_" class="st7" d="M209.015,44.843c-1.593,0.617-2.682,4.645-2.369,6.214c0.314,1.569,6.78-3.035,6.78-3.035
		l-0.11-1.869C213.316,46.153,213.746,43.01,209.015,44.843z"/>
	<linearGradient id="XMLID_240_" gradientUnits="userSpaceOnUse" x1="193.7365" y1="44.4505" x2="194.5672" y2="53.8477">
		<stop  offset="0" style="stop-color:#F9BB87"/>
		<stop  offset="1" style="stop-color:#FCD2A0"/>
	</linearGradient>
	<path id="XMLID_228_" class="st8" d="M198.213,52.27c1.157-2.675,0.331-7.752-1.767-8.472c-4.004-1.375-5.381-0.177-6.26,1.582
		c-0.88,1.759-1.212,7.594,1.692,8.98C194.782,55.745,198.213,52.27,198.213,52.27z"/>
	<path id="XMLID_227_" class="st2" d="M213.183,44.888c0,0-2.413-5.987-8.391-6.286c0,0,2.386,2.332,0,3.822
		c-2.385,1.491-11.028-1.058-15.575-3.525c0,0,1.066,9.186-1.479,10.544c-2.544,1.357-4.053-2.455-4.053-2.455
		s1.257,9.857,0.41,11.363c-0.847,1.506-1.596-5.427-1.596-5.427V39.35c0,0,2.495-5.388,12.361-6.66
		c9.866-1.272,18.236-0.075,19.926,3.443C216.476,39.649,213.183,44.888,213.183,44.888z"/>
	<ellipse id="XMLID_226_" class="st9" cx="189.758" cy="56.107" rx="4.063" ry="3.185"/>
	<path id="XMLID_225_" class="st9" d="M218.557,56.847c-0.09,1.757-1.98,3.087-4.221,2.973c-2.241-0.115-3.985-1.632-3.895-3.389
		c0.09-1.757,1.98-3.087,4.221-2.973C216.904,53.573,218.647,55.09,218.557,56.847z"/>
	<path id="XMLID_224_" class="st3" d="M157.85,106.583c0,0-0.955,2.195-0.791,3.301c0.164,1.106,5.899,5.314,11.794,8.024
		c7.68,3.531,16.231,2.202,16.941,1.402c0.71-0.8,0.179-2.404,0.179-2.404L157.85,106.583z"/>
	<path id="XMLID_223_" class="st4" d="M157.059,109.884c0.164,1.106,5.899,5.313,11.794,8.024c1.236,0.568,2.494,0.999,3.739,1.339
		c-5.284-1.828-5.511-4.95-4.038-4.267l-1.692-5.089l-9.013-3.308C157.85,106.583,156.895,108.778,157.059,109.884z"/>
	<path id="XMLID_222_" class="st6" d="M183.177,52.765c-0.672-2.348-4.765-5.248-7.911-2.935c-3.326,2.445-2.353,6.693-0.587,8.999
		c1.735,2.265,4.09,3.375,6.226,3.635c1.595,0.194,2.531,0.153,3.191-0.812L183.177,52.765z"/>
	<path id="XMLID_221_" class="st10" d="M181.133,50.144c0.591,2.821,1.474,7.313,2.045,7.732c0.571,0.42,1.688-12.035,1.688-12.035
		s0.749,3.052,2.052,2.725c1.303-0.327,2.47-11.102,2.47-11.102s11.879,5.78,15.287,3.876c3.408-1.904-0.501-4.51-0.501-4.51
		s8.895,1.9,9.099,8.78c0,0,7.588,1.425,11.296-3.185c3.708-4.61-8.882-10.894-8.882-10.894s8.16-0.378,7.559-4.588
		s-15.739-6.712-23.055-3.905c-7.316,2.806-9.847,7.379-9.847,7.379s-5.048-0.835-9.21,2.706
		c-5.556,4.727-7.126,12.428-6.124,13.029c1.002,0.601,2.334-0.259,2.334-0.259c-0.135,0.919-0.116,2.106,0.086,3.091
		C179.205,48.923,180.206,49.545,181.133,50.144z"/>
	<path id="XMLID_220_" class="st11" d="M188.506,30.339c-1.846,0.069-4.781,0.577-7.373,2.782
		c-5.556,4.727-7.126,12.427-6.124,13.029c1.002,0.601,2.334-0.259,2.334-0.259c-0.135,0.92-0.116,2.106,0.086,3.091
		c1.776-0.059,2.777,0.563,3.704,1.162c0.591,2.821,1.474,7.313,2.045,7.732c0.214,0.157,0.503-1.486,0.782-3.604v0
		c-0.288,1.48-0.926,1.631-1.078-0.418c-0.152-2.049-0.382-5.943-0.382-5.943s-0.984,0.404-1.59-0.639
		c-0.607-1.044,0.585-4.378,0.585-4.378s-3.013,0.339-2.406-2.62C179.696,37.314,184.72,31.059,188.506,30.339z"/>
	<path id="XMLID_219_" class="st12" d="M219.369,38.138c-4.515-2.471-15.196-1.308-15.196-1.308s8.895,1.9,9.099,8.78
		c2.916,0,6.169-0.881,7.47-1.761C223.253,42.151,223.201,40.234,219.369,38.138z"/>
	<path id="XMLID_213_" class="st13" d="M188.709,78.969c0,0-1.862,11.592-1.461,19.743c0.248,5.047,1.726,10.248,2.816,13.477
		c0.663,1.966-0.453,4.085-2.446,4.662c-2.503,0.724-6.15,1.328-10.484,0.703c-7.335-1.06-16.201-5.845-19.182-10.102
		c-0.682-0.974-0.923-2.184-0.726-3.357c0.893-5.325,6.26-23.896,20.513-31.533L188.709,78.969z"/>
	<path id="XMLID_212_" class="st14" d="M170.339,110.275c-3.117-4.537-3.658-11.391-1.679-18.565
		c2.359-8.548,10.012-15.338,13.63-16.489l-4.551-2.659c-14.253,7.637-19.619,26.208-20.513,31.533
		c-0.197,1.173,0.044,2.383,0.726,3.357c2.98,4.257,11.846,9.042,19.182,10.102c4.333,0.626,7.981,0.021,10.484-0.703
		C181.155,117.551,173.017,114.171,170.339,110.275z"/>
	<path id="XMLID_211_" class="st3" d="M176.083,72.818c-0.815-1.561-5.455-0.434-11.735,2.662s-11.282,8.377-11.282,8.377
		s-0.421,8.706,9.855,10.561c0,0,3.703-7.884,7.422-12.616C174.647,76.326,177.4,75.338,176.083,72.818z"/>
	<path id="XMLID_210_" class="st15" d="M190.186,51.057c0-2.248,1.822-4.07,4.07-4.07c2.248,0,4.07,1.822,4.07,4.07
		c0,2.248-1.822,4.07-4.07,4.07C192.008,55.127,190.186,53.305,190.186,51.057z"/>
	<path id="XMLID_209_" class="st15" d="M206.646,51.057c0-2.248,1.822-4.07,4.07-4.07c2.248,0,4.07,1.822,4.07,4.07
		c0,2.248-1.822,4.07-4.07,4.07C208.468,55.127,206.646,53.305,206.646,51.057z"/>
	<path id="XMLID_208_" class="st16" d="M198.01,62.035c-1.602-0.563-2.319-2.202-3.638-2.611c-1.319-0.409-2.592,1.364-1.956,3.729
		c0.637,2.365,4.138,5.317,8.686,4.18s4.639-4.59,3.001-5.09C202.467,61.743,200.567,62.934,198.01,62.035z"/>
	<path id="XMLID_207_" class="st13" d="M195.44,64.469c0.098-1.362,2.305-1.565,4.6-2.004l-0.024-0.091
		c-0.624-0.006-1.287-0.085-2.006-0.338c-1.602-0.563-2.319-2.202-3.638-2.611c-1.319-0.409-2.592,1.364-1.956,3.729
		c0.637,2.365,4.138,5.317,8.686,4.181c1.178-0.295,2.052-0.746,2.679-1.26C199.141,68.191,195.342,65.831,195.44,64.469z"/>
	<path id="XMLID_206_" class="st17" d="M196.861,42.831c-2.659-1.214-6.921,0.372-6.861,3.625c0.002,0.091,0.068,0.222,0.167,0.121
		c1.415-1.431,4.523-2.826,6.521-1.947C197.997,45.206,197.868,43.291,196.861,42.831z"/>
	<path id="XMLID_205_" class="st17" d="M208.861,43.922c2.659-1.214,6.921,0.372,6.861,3.625c-0.002,0.091-0.068,0.222-0.167,0.121
		c-1.415-1.431-4.523-2.826-6.521-1.947C207.725,46.297,207.854,44.382,208.861,43.922z"/>
	<path id="XMLID_204_" class="st18" d="M192.554,51.474c0-1.594,1.292-2.886,2.886-2.886c1.594,0,2.886,1.292,2.886,2.886
		s-1.292,2.886-2.886,2.886C193.846,54.36,192.554,53.067,192.554,51.474z"/>
	<path id="XMLID_203_" class="st18" d="M209.015,51.474c0-1.594,1.292-2.886,2.886-2.886c1.594,0,2.886,1.292,2.886,2.886
		s-1.292,2.886-2.886,2.886C210.307,54.36,209.015,53.067,209.015,51.474z"/>
	<g id="XMLID_201_">
		<path id="XMLID_202_" class="st19" d="M201.121,57.72c0.826-0.813,1.54-1.533,2.697-1.892c0.513-0.159,1.077-0.267,1.591-0.054
			c1.012,0.419,0.779,1.319,0.623,2.223c-0.028,0.16,0.157,0.465,0.336,0.309c1.34-1.166,0.389-3.006-1.15-3.325
			c-1.567-0.325-4.048,0.884-4.275,2.577C200.932,57.647,201.024,57.816,201.121,57.72L201.121,57.72z"/>
	</g>
	<path id="XMLID_200_" class="st2" d="M175.714,55.086c-0.347-1.314,1.082-2.822,2.943-2.426c1.742,0.371,2.685,1.612,2.824,3.794
		c0.139,2.182-0.791,2.805-1.598,3.085c-1.038,0.36-2.621-0.556-2.439-1.857c0.201-1.437,1.675-1.95,2.508-1.228
		c0,0,0.297-2.615-1.773-2.924C175.882,53.186,175.714,55.086,175.714,55.086z"/>
	<path id="XMLID_199_" class="st15" d="M201.734,62.246L201.734,62.246c-1.084,0.143-2.299,0.29-3.724-0.211
		c-1.602-0.563-2.319-2.202-3.638-2.612c-0.684-0.212-1.349,0.17-1.749,0.91c1.697,2.899,4.413,3.99,5.703,4.112
		C200.223,64.627,201.399,63.702,201.734,62.246z"/>
	<path id="XMLID_198_" class="st3" d="M187.838,73.884c5.196,0.665,6.513-0.408,6.995,0.171c0.482,0.579-5.536,4.892-5.536,4.892
		s-7.41,0.744-11.558-6.385c0,0-0.175-5.066,0.694-6.128c0.868-1.061,1.439,3.725,6.348,6.128l0.318,3.921L187.838,73.884z"/>
	<path id="XMLID_160_" class="st20" d="M201.511,62.877c0.092-0.198,0.171-0.405,0.223-0.631c-1.084,0.143-2.299,0.29-3.723-0.211
		c-1.602-0.563-2.319-2.202-3.638-2.612c-0.444-0.138-0.879-0.022-1.239,0.277c0.689,0.015,1.018,0.522,2.022,1.468
		C197.129,63.031,198.881,63.665,201.511,62.877z"/>
	<path id="XMLID_159_" class="st17" d="M222.106,28.046c0.649-1.767-2.099-3.431-6.383-4.48c-5.059-1.239-9.458-0.736-9.458-0.736
		s7.856,1.033,11.557,2.735c3.701,1.702,2.532,3.91,2.532,3.91S221.652,29.28,222.106,28.046z"/>
	<path id="XMLID_158_" class="st17" d="M203.782,37.456c0.467,0.491,2.172,2.334,0.194,3.071c-1.978,0.737-8.934-1.065-11.352-2.498
		c0,0,4.183,1.527,7.162,1.533C202.764,39.569,204.584,39.299,203.782,37.456z"/>
	<path id="XMLID_157_" class="st10" d="M190.311,31.301c0,0,1.23-3.743-0.881-4.306C187.319,26.432,190.311,31.301,190.311,31.301z"
		/>
	<path id="XMLID_156_" class="st10" d="M190.186,30.632c0,0-2.143-3.307-3.905-2.017C184.518,29.906,190.186,30.632,190.186,30.632z
		"/>
	<path id="XMLID_155_" class="st17" d="M188.455,38.514c-0.16,1.838-0.2,6.269-1.159,8.098c-0.593,1.131-1.355,0.694-1.601-0.465
		c0,0,0.719,0.874,1.38-0.768C187.735,43.737,188.455,38.514,188.455,38.514z"/>
	<path id="XMLID_154_" class="st4" d="M179.366,71.418c-0.093-1.672,0.567-3.475,1.367-2.284l0-0.001
		c-1.349-1.827-1.773-3.345-2.3-2.7c-0.868,1.061-0.694,6.128-0.694,6.128c1.978,3.399,4.692,4.998,6.996,5.751
		C180.955,76.99,179.459,73.082,179.366,71.418z"/>
	<path id="XMLID_153_" class="st4" d="M165.451,77.913c5.303-4.278,10.609-5.09,10.944-4.116c-0.032-0.308-0.129-0.628-0.312-0.978
		c-0.815-1.561-5.455-0.434-11.735,2.662s-11.282,8.377-11.282,8.377s-0.421,8.706,9.855,10.562
		C157.115,89.97,160.137,82.2,165.451,77.913z"/>
</g>
<g id="XMLID_27_">
	<path id="XMLID_151_" class="st21" d="M104.569,10.27c0,0-3.196-0.502-6.614,1.505c-3.418,2.006-5.173,6.521-8.685,10.534
		c-3.218,3.678-7.799,2.747-10.28,3.134c0,0-0.096-1.264-3.669-2.23c-3.573-0.966-5.78-0.966-6.725-0.756
		c0,0,0.42-3.153-2.312-4.939c-1.849-1.209-4.032-1.501-5.578-1.207l0,0c-0.517-1.945-3.039-3.732-6.192-4.257
		c-2.302-0.384-4.77,0.438-5.812,1.543c0,0-4.066-0.39-6.062,2.606c-1.997,2.996-0.42,5.504,0.736,6.141
		c1.156,0.638,2.102-6.508,4.834-7.453c0.42,2.102,2.627,3.084,5.149,3.504c2.522,0.42,5.268-0.454,5.268-0.454l0.028-0.022
		c-0.347,1.457,0.423,3.847,2.059,5.294c1.996,1.766,5.678,1.975,5.678,1.975l0.017-0.02c-0.073,0.308-0.125,0.627-0.125,0.967
		c0,1.939,0.631,4.972,4.834,7.162c4.203,2.19,6.314,0.716,6.314,0.716l0.002-0.009c0.609,2.035,1.665,4.166,3.309,6.071
		c5.016,5.809,15.273,7.192,20.446,6.207c0,0,5.004,3.055,9.398,3.231c4.394,0.177,12.6-0.531,17.277-10.995L104.569,10.27z"/>
	<path id="XMLID_150_" class="st22" d="M106.578,36.97c0,0-6.267-7.015-11.104-3.169c-1.424,1.132-3.073,2.005-4.847,2.432
		c-2.323,0.559-4.753,0.271-6.878-0.825c-2.562-1.32-4.055-3.878-6.628-5.146c-1.611-0.794-3.328-1.252-4.912-2.092
		c-1.114-0.591-2.006-1.29-2.783-2.285c-0.738-0.946-1.333-1.997-2.102-2.921c-1.088-1.309-2.512-2.335-4.098-2.953
		c-0.653-0.255-1.351-0.451-1.889-0.901c-0.744-0.622-1.048-1.606-1.42-2.501c-0.755-1.814-2.195-2.487-4.126-2.377
		c-1.429,0.082-2.854,0.674-4.276,0.62c-1.05-0.04-2.003-0.444-3.018-0.637c-2.121-0.404-3.95,1.688-4.938,3.253
		c-0.501,0.794-0.708,1.635-0.843,2.549c-0.044,0.301-0.304,1.43-0.087,1.685c0.243,0.287,0.504,0.509,0.747,0.643
		c1.156,0.638,2.102-6.508,4.834-7.453c0.42,2.102,2.627,3.084,5.149,3.504c2.522,0.42,5.268-0.454,5.268-0.454l0.028-0.022
		c-0.347,1.457,0.423,3.847,2.059,5.294c1.996,1.766,5.678,1.975,5.678,1.975l0.017-0.02c-0.073,0.308-0.125,0.627-0.125,0.967
		c0,1.939,0.631,4.972,4.834,7.162c4.203,2.19,6.314,0.716,6.316,0.707c0.609,2.035,1.665,4.166,3.309,6.071
		c5.016,5.809,15.273,7.192,20.446,6.207c0,0,5.004,3.055,9.398,3.231c2.861,0.115,7.337-0.147,11.403-3.231
		C121.933,46.291,113.258,47.573,106.578,36.97z"/>
	<g id="XMLID_148_">
		<path id="XMLID_149_" class="st2" d="M74.448,93.061c-3.218-5.204-4.241-13.576-2.669-21.847
			c1.427-7.511,6.597-14.818,13.829-19.545l2.989,4.573c-6.015,3.932-10.297,9.91-11.452,15.993
			c-1.307,6.879-0.542,13.926,1.949,17.955L74.448,93.061z"/>
	</g>
	<path id="XMLID_147_" class="st0" d="M111.048,86.673c0.8,3.832,6.486,14.756,8.791,17.64c0,0-7.372,10.792-25.231,7.15
		c-17.859-3.642-23.555-13.011-23.555-13.011l11.809-15.345L111.048,86.673z"/>
	<path id="XMLID_146_" class="st1" d="M92.494,87.59l-1.265-3.424l-8.367-1.059L71.053,98.452c0,0,5.696,9.369,23.555,13.011
		c17.859,3.642,25.231-7.15,25.231-7.15C100.893,113.88,89.807,94.507,92.494,87.59z"/>
	<path id="XMLID_128_" class="st2" d="M158.625,60.673c-5.463-1.135-8.966,2.792-11.182,4.362l0,0
		c-9.124,0.664-23.143-1.809-27.279-4.525l-2.998,4.567c4.4,2.888,15.478,5.107,24.822,5.451c1.578,0.058,3.102,0.059,4.54,0.004
		l0,0c12.586,3.592,13.476-3.949,14.76-4.911c1.284-0.962,7.404,0.075,8.568-1.1C172.321,62.032,164.089,61.808,158.625,60.673z"/>
	<path id="XMLID_127_" class="st3" d="M103.936,50.946c-1.391,1.079,0.539,5.446,4.698,11.079
		c4.159,5.632,10.242,9.621,10.242,9.621s8.643-1.127,8.65-11.569c0,0-8.415-2.249-13.73-5.071
		C107.643,51.738,106.182,49.204,103.936,50.946z"/>
	<path id="XMLID_126_" class="st4" d="M114.42,63.467c-5.73-3.494-10.299-12.397-9.058-13.077c-0.476,0.007-0.933,0.173-1.426,0.556
		c-1.392,1.079,0.538,5.446,4.698,11.078c4.159,5.632,10.242,9.621,10.242,9.621s8.643-1.127,8.65-11.569
		C126.263,63.134,120.335,67.073,114.42,63.467z"/>
	<path id="XMLID_124_" class="st23" d="M107.905,51.498c-0.092,5.19,0.596,19.675,4.861,31.333c0.564,1.542-0.19,3.243-1.718,3.843
		c-4.745,1.863-15.187,4.35-27.367-2.837c-1.172-0.692-1.525-2.063-1.338-3.411c1.118-8.06,7.382-30.745,18.845-34.143
		L107.905,51.498z"/>
	<path id="XMLID_123_" class="st24" d="M92.453,70.576c1.347-10.467,9.564-20.115,12.212-21.594l-3.477-2.7
		C89.725,49.68,83.462,72.365,82.343,80.425c-0.187,1.348,0.166,2.719,1.338,3.411c12.18,7.187,22.622,4.701,27.367,2.837
		C97.731,88.961,91.28,79.691,92.453,70.576z"/>
	<path id="XMLID_122_" class="st3" d="M99.052,50.127c-0.503-1.687-5.273-1.466-12.028,0.377
		c-6.755,1.843-12.672,6.074-12.672,6.074s-2.072,8.466,7.662,12.246c0,0,5.137-7.034,9.689-10.97
		C96.974,53.297,99.864,52.851,99.052,50.127z"/>
	<path id="XMLID_121_" class="st4" d="M88.017,52.815c5.643-3.714,10.615-3.255,11.168-1.763c0.011-0.281-0.032-0.586-0.133-0.925
		c-0.503-1.687-5.273-1.466-12.027,0.377c-6.755,1.843-12.672,6.074-12.672,6.074s-2.072,8.466,7.662,12.246
		C77.016,62.578,81.718,56.962,88.017,52.815z"/>
	<g id="XMLID_28_">
		<path id="XMLID_120_" class="st2" d="M103.615,38.253l-2.426,8.028c0,0-0.107,2.619,1.128,4.77c1.479,2.575,4.995,2.9,5.588,0.446
			l2.681-7.313L103.615,38.253z"/>
		<path id="XMLID_117_" class="st5" d="M103.614,38.255l-1.045,3.457c0,0,2.474,5.325,6.214,7.389l1.802-4.916l-6.97-5.93H103.614z"
			/>
		<path id="XMLID_104_" class="st6" d="M130.855,13.57c1.562,2.846,2.133,10.667,1.991,14.365c-0.142,3.698,1.607,5.12,0.021,9.245
			c-1.586,4.125-6.562,10.396-13.388,10.822c-6.827,0.427-16.909-7.551-16.909-12.813c0-3.834-0.023-16.462,3.111-21.618
			C110.09,6.316,126.873,6.316,130.855,13.57z"/>
		<path id="XMLID_103_" class="st2" d="M102.317,28.755c0.1,2.756,0.657,5.233,1.171,5.034c0.514-0.198,1.712-5.318,2.203-8.207
			c0.491-2.889,2.343-8.547,7.262-10.925c0,0,4.048,4.306,8.173,5.458c6.353,1.774,4.176-2.969,4.176-2.969l-0.836-1.585
			c0,0,3.346,2.764,7.84,3.464l0.513-4.95c0,0-11.699-8.612-20.803-3.86C102.912,14.966,102.317,28.755,102.317,28.755z"/>
		<linearGradient id="XMLID_241_" gradientUnits="userSpaceOnUse" x1="130.05" y1="20.9578" x2="129.2071" y2="27.0048">
			<stop  offset="0" style="stop-color:#F9BB87"/>
			<stop  offset="1" style="stop-color:#FCD2A0"/>
		</linearGradient>
		<path id="XMLID_102_" class="st25" d="M128.407,21.443c-1.593,0.617-2.683,4.645-2.369,6.214c0.314,1.569,6.78-3.035,6.78-3.035
			l-0.11-1.869C132.709,22.753,133.138,19.611,128.407,21.443z"/>
		<linearGradient id="XMLID_242_" gradientUnits="userSpaceOnUse" x1="113.1289" y1="21.0507" x2="113.9596" y2="30.4479">
			<stop  offset="0" style="stop-color:#F9BB87"/>
			<stop  offset="1" style="stop-color:#FCD2A0"/>
		</linearGradient>
		<path id="XMLID_100_" class="st26" d="M117.605,28.87c1.157-2.675,0.331-7.752-1.767-8.472c-4.004-1.375-5.381-0.177-6.26,1.581
			c-0.88,1.759-1.212,7.594,1.692,8.98C114.175,32.346,117.605,28.87,117.605,28.87z"/>
		<ellipse id="XMLID_99_" class="st9" cx="109.151" cy="32.707" rx="4.063" ry="3.185"/>
		<path id="XMLID_98_" class="st9" d="M137.95,33.447c-0.09,1.757-1.98,3.087-4.221,2.973c-2.241-0.115-3.985-1.632-3.895-3.389
			c0.09-1.756,1.98-3.087,4.221-2.972C136.296,30.174,138.04,31.691,137.95,33.447z"/>
		<path id="XMLID_97_" class="st6" d="M102.57,29.365c-0.672-2.348-4.765-5.248-7.911-2.934c-3.326,2.445-2.353,6.693-0.587,8.999
			c1.735,2.265,4.09,3.375,6.226,3.635c1.595,0.194,2.531,0.153,3.19-0.812L102.57,29.365z"/>
		<path id="XMLID_96_" class="st15" d="M109.578,27.657c0-2.248,1.822-4.07,4.07-4.07c2.248,0,4.07,1.822,4.07,4.07
			s-1.822,4.07-4.07,4.07C111.4,31.728,109.578,29.905,109.578,27.657z"/>
		<path id="XMLID_95_" class="st15" d="M126.039,27.657c0-2.248,1.822-4.07,4.07-4.07c2.248,0,4.07,1.822,4.07,4.07
			s-1.822,4.07-4.07,4.07C127.861,31.728,126.039,29.905,126.039,27.657z"/>
		<path id="XMLID_94_" class="st16" d="M117.402,38.635c-1.602-0.563-2.319-2.202-3.638-2.611c-1.319-0.409-2.592,1.364-1.955,3.729
			c0.637,2.365,4.138,5.317,8.686,4.18c4.548-1.137,4.639-4.59,3.001-5.09C121.859,38.343,119.96,39.535,117.402,38.635z"/>
		<path id="XMLID_93_" class="st13" d="M114.833,41.069c0.098-1.363,2.305-1.565,4.6-2.004l-0.024-0.091
			c-0.624-0.006-1.287-0.086-2.006-0.338c-1.602-0.563-2.319-2.202-3.638-2.611c-1.319-0.409-2.592,1.364-1.955,3.729
			c0.637,2.365,4.138,5.317,8.686,4.181c1.178-0.295,2.052-0.746,2.679-1.26C118.533,44.792,114.735,42.431,114.833,41.069z"/>
		<path id="XMLID_92_" class="st17" d="M116.253,19.431c-2.659-1.213-6.921,0.372-6.861,3.625c0.002,0.091,0.068,0.222,0.167,0.121
			c1.415-1.431,4.523-2.825,6.521-1.947C117.39,21.806,117.261,19.891,116.253,19.431z"/>
		<path id="XMLID_91_" class="st17" d="M128.254,20.522c2.659-1.213,6.921,0.372,6.861,3.625c-0.002,0.091-0.068,0.222-0.167,0.121
			c-1.414-1.431-4.523-2.826-6.521-1.947C127.117,22.897,127.246,20.982,128.254,20.522z"/>
		<path id="XMLID_90_" class="st18" d="M111.947,28.074c0-1.594,1.292-2.886,2.886-2.886c1.594,0,2.886,1.292,2.886,2.886
			s-1.292,2.886-2.886,2.886C113.239,30.96,111.947,29.668,111.947,28.074z"/>
		<path id="XMLID_89_" class="st18" d="M128.407,28.074c0-1.594,1.292-2.886,2.886-2.886c1.594,0,2.886,1.292,2.886,2.886
			s-1.292,2.886-2.886,2.886C129.699,30.96,128.407,29.668,128.407,28.074z"/>
		<g id="XMLID_87_">
			<path id="XMLID_88_" class="st19" d="M120.514,34.32c0.826-0.813,1.541-1.533,2.697-1.892c0.513-0.159,1.077-0.267,1.591-0.054
				c1.011,0.419,0.78,1.319,0.623,2.223c-0.028,0.16,0.157,0.465,0.336,0.309c1.34-1.166,0.389-3.006-1.15-3.325
				c-1.567-0.325-4.048,0.885-4.275,2.577C120.324,34.247,120.416,34.416,120.514,34.32L120.514,34.32z"/>
		</g>
		<path id="XMLID_86_" class="st2" d="M95.106,31.686c-0.347-1.314,1.081-2.822,2.943-2.426c1.742,0.371,2.685,1.612,2.824,3.794
			c0.139,2.182-0.791,2.805-1.598,3.085c-1.038,0.36-2.621-0.556-2.439-1.857c0.201-1.437,1.675-1.95,2.508-1.228
			c0,0,0.297-2.615-1.773-2.924C95.275,29.786,95.106,31.686,95.106,31.686z"/>
		<path id="XMLID_85_" class="st15" d="M121.126,38.846L121.126,38.846c-1.084,0.143-2.299,0.29-3.723-0.211
			c-1.602-0.563-2.319-2.202-3.638-2.612c-0.684-0.212-1.349,0.17-1.749,0.91c1.697,2.899,4.413,3.99,5.703,4.112
			C119.615,41.227,120.791,40.302,121.126,38.846z"/>
		<path id="XMLID_82_" class="st20" d="M120.903,39.477c0.092-0.198,0.171-0.405,0.223-0.631c-1.084,0.143-2.299,0.29-3.723-0.211
			c-1.602-0.563-2.319-2.202-3.638-2.612c-0.444-0.138-0.879-0.022-1.239,0.277c0.689,0.015,1.019,0.522,2.022,1.468
			C116.521,39.631,118.274,40.265,120.903,39.477z"/>
		<path id="XMLID_81_" class="st21" d="M100.775,26.833c0.534,2.372,0.826,6.992,1.934,5.874c1.108-1.119,2.362-10.572,3.741-13.683
			c1.379-3.111,5.255-5.744,6.891-5.619c0,0,5.774,5.212,10.54,5.619c4.765,0.407,0.713-4.616,0.713-4.616s3.962,2.491,7.453,3.053
			c0.18,0.94,0.33,1.982,0.46,3.111c0,0,7.802-0.4,13.194-6.289c5.392-5.889-0.252-6.613-5.016-6.153
			c-4.082,0.394-8.17,0.655-9.907-0.618c0,0,6.019-1.756,7.399-6.27c1.018-3.332-3.997,1.159-14.48,0.627
			c-9.092-0.461-17.623,0.878-19.128,8.402L100.775,26.833z"/>
		<path id="XMLID_79_" class="st22" d="M132.046,17.461c5.2,0.521,9.181-1.848,11.883-3.486c2.702-1.637-2.819,5.122-11.517,5.826
			L132.046,17.461z"/>
		<path id="XMLID_75_" class="st27" d="M108.261,15.218c-2.646,1.871-4.313,6.232-4.773,9.086c-0.46,2.854-0.726,5.003-1.104,5.57
			c-0.378,0.567-0.593-1.209-0.593-1.209s0.138,2.443,0.526,2.621c0.389,0.178,0.662,0.376,1.171-3.303
			C103.998,24.304,104.439,19.682,108.261,15.218z"/>
		<path id="XMLID_74_" class="st27" d="M115.529,13.922c2.585,1.653,6.569,3.475,8.01,3.179c1.441-0.297,0.798-2.204,0.798-2.204
			s1.956,2.716,0.982,3.433C124.345,19.046,119.428,18.033,115.529,13.922z"/>
		<path id="XMLID_73_" class="st27" d="M130.487,8.13c0.737,0.79,3.398,1.609,7.846,1.117c4.447-0.491,7.568-0.757,8.244,0.472
			c0.675,1.228,0,2.211-0.676,2.886c0,0,1.044-2.509-2.027-2.39C140.804,10.333,132.391,12.007,130.487,8.13z"/>
		<path id="XMLID_33_" class="st27" d="M105.886,10.214c0,0,1.123-4.07,5.754-5.901c4.494-1.778,9.068-1.136,12.826-0.994
			c3.758,0.142,7.3-0.202,10.539-1.634c0,0-2.59,3.48-11.185,3.054C115.225,4.313,110.398,4.182,105.886,10.214z"/>
		<path id="XMLID_32_" class="st21" d="M104.577,11.113c0,0,1.23-3.743-0.881-4.306C101.585,6.245,104.577,11.113,104.577,11.113z"
			/>
		<path id="XMLID_31_" class="st21" d="M104.451,10.445c0,0-2.143-3.307-3.905-2.017C98.784,9.718,104.451,10.445,104.451,10.445z"
			/>
		<path id="XMLID_30_" class="st18" d="M109.71,26.645c-0.685,0.141-1.874-0.488-2.014-1.457c0,0-0.562,2.051,1.883,2.795
			C109.578,27.983,109.488,27.291,109.71,26.645z"/>
		<path id="XMLID_29_" class="st18" d="M133.951,26.319c0.685,0.14,1.874-0.489,2.015-1.457c0,0,0.707,1.977-1.787,2.795
			C134.179,27.657,134.174,26.965,133.951,26.319z"/>
	</g>
</g>
<g id="XMLID_1_">
	<path id="XMLID_26_" class="st4" d="M166.569,149.935c0,0,0.682-22-29.06-33.116c-31.465-11.76-63.993-23.27-76.504-47.29
		c0,0-5.255,18.266,2.752,35.53C71.765,122.324,166.569,149.935,166.569,149.935z"/>
	<path id="XMLID_25_" class="st4" d="M166.569,149.935c0,0,1.278-19.104,22.296-30.364s44.038-10.509,53.296-26.523
		c0,0,1.751,16.764-7.757,27.023C224.896,130.331,166.569,149.935,166.569,149.935z"/>
	<path id="XMLID_24_" class="st28" d="M166.569,149.935c-3.226-12.743-15.613-27.014-45.762-33.616
		c-33.086-7.246-64.285-18.366-78.42-39.305c0,0-1.832,5.758,0,11.779c0,0-6.282-3.403-8.376-5.758
		c-2.094-2.356-1.309,6.282-2.094,7.852c-0.785,1.571-5.497,0-6.544,2.094c-1.047,2.094-5.892,9.924-5.892,9.924L64.89,187.47
		l124.866,9.902l66.039-73.62c0,0-4.222-0.725-3.75-2.444c1.309-4.77-2.879-4.77-3.665-6.864c-0.785-2.094,1.047-6.282,1.57-8.899
		c0,0-4.973,6.02-16.228,9.685c-11.255,3.664-29.729,4.336-42.209,9.558C178.361,130.29,171.058,138.283,166.569,149.935z"/>
	<path id="XMLID_23_" class="st29" d="M137.509,152.582c-4.821-0.105-9.905,10.84-9.905,10.84s11.973,8.249,36.629,8.061
		c24.656-0.188,34.302-13.555,34.302-13.555s6.377-5.533-2.906-4.221c-9.283,1.313-11.04,2.488-31.396,2.027
		C143.878,155.274,137.509,152.582,137.509,152.582z"/>
	<path id="XMLID_22_" class="st30" d="M202.674,158.784l-74.335,102.326c-0.708,0.975-1.686,1.714-2.821,2.119
		c-3.689,1.316-12.82,3.966-24.921,3.222c-11.048-0.68-18.677-4.779-22.315-7.226c-1.438-0.967-1.915-2.856-1.124-4.398
		l50.447-98.439c1.457-2.843,5.211-3.58,7.598-1.457c5.035,4.478,15.108,10.251,33.277,9.661c12.175-0.395,22.697-4.893,30.6-9.734
		C201.602,153.313,204.413,156.39,202.674,158.784z"/>
	<path id="XMLID_21_" class="st31" d="M130.266,154.02l-5.786-2.779L72.526,252.754l4.632,2.073l50.447-98.439
		C128.244,155.25,129.108,154.427,130.266,154.02z"/>
	<path id="XMLID_20_" class="st32" d="M124.275,152.582c-2.15-2.647,1.731-0.609,1.731-0.609s-18.041,35.881-19.895,41.995
		c-1.139,3.754-1.19,6.683-1.19,6.683l-27.763,54.176l-4.632-2.073L124.275,152.582z"/>
	<path id="XMLID_19_" class="st30" d="M123.256,149.658L10.097,98.675c-2.192-0.987-4.688,0.548-4.796,2.949L0.004,219.496
		c-0.072,1.595,0.841,3.071,2.3,3.718l67.713,30.061c1.032,0.458,2.243,0.033,2.761-0.971l51.496-99.722
		C124.836,151.496,124.371,150.161,123.256,149.658z"/>
	<path id="XMLID_18_" class="st33" d="M202.017,154.949l57.584-33.406c1.578-0.915,3.256,1.025,2.124,2.455l-94.638,119.465
		c-1.165,1.47-2.697,2.607-4.442,3.296l-33.484,13.219l73.512-101.193C203.633,157.209,203.217,155.981,202.017,154.949z"/>
	<path id="XMLID_17_" class="st34" d="M123.256,149.658L10.097,98.675c-2.191-0.987-4.688,0.548-4.796,2.949l-0.035,0.767v0
		c0.473-4.531,9.939,1.22,24.204,7.334c17.375,7.448,94.804,42.857,94.804,42.857C124.836,151.496,124.371,150.161,123.256,149.658z
		"/>
	<path id="XMLID_16_" class="st34" d="M134.491,157.269c4.215,3.099,11.201,9.62,31.758,9.62s30.177-7.775,32.286-8.961
		c2.108-1.186,3.932-2.702,4.668-0.758c-0.017-1.905-2.153-3.519-4.124-2.312c-7.902,4.841-18.425,9.339-30.6,9.734
		c-18.169,0.589-28.242-5.184-33.277-9.661c-2.387-2.123-6.141-1.386-7.598,1.457C128.423,155.245,129.646,153.708,134.491,157.269z
		"/>
	<path id="XMLID_15_" class="st35" d="M195.629,153.708c0,0-5.842,0.068-29.059-0.619c-23.217-0.687-29.061-0.506-29.061-0.506
		s7.184,8.121,27.063,8.834C184.452,162.13,195.629,153.708,195.629,153.708z"/>
	<path id="XMLID_14_" class="st36" d="M19.482,111.2c0,0-1.895,9.034-10.261,6.614l-5.821,95.344c0,0,3.235,0.265,4.997,2.657
		c2.325,3.155,0.953,6.241,0.953,6.241l56.593,24.931c0,0,2.319-5.965,7.466-3.579l39.533-80.607c0,0-6.971-4.1-5.76-12.924
		L19.482,111.2z"/>
	<path id="XMLID_13_" class="st37" d="M208.797,156.223c-0.858,3.086-2.878,4.785-5.595,5.236l-65.564,90.575
		c0,0,3.462-0.28,0.813,2.793l24.076-10.059c0,0,0.704-3.111,3.816-2.465l86.814-110.627c0,0-1.01,0.475-1.136-0.64L208.797,156.223
		z"/>
	<path id="XMLID_12_" class="st36" d="M158.429,177.313c-14.729-1.088-27.881-5.422-35.575-11.656l-2.539,4.955
		c8.689,6.611,22.229,11.004,37.713,12.149c2.467,0.182,4.87,0.273,7.21,0.273c8.243,0,15.68-1.141,22.284-3.391l6.474-8.912
		C184.703,176.154,172.783,178.376,158.429,177.313z"/>
	<path id="XMLID_11_" class="st36" d="M97.872,253.892c-7.997-1.366-13.957-3.798-17.321-5.687l-2.073,4.046
		c2.707,1.506,6.019,2.836,8.919,3.767c4.363,1.403,12.365,3.422,22.243,3.422c6.851,0,14.605-0.978,22.673-3.8l5.141-7.077
		C122.292,255.913,107.63,255.558,97.872,253.892z"/>
	<path id="XMLID_10_" class="st32" d="M167.088,243.463l22.839-28.831c0,0-17.094,14.113-14.271,0
		c2.127-10.633,16.627-38.24,23.649-51.209l-70.143,96.555l33.484-13.219C164.391,246.07,165.923,244.933,167.088,243.463z"/>
	<path id="XMLID_9_" class="st32" d="M105.97,215.987c11.989-24.359,17.432-35.431,30.048-57.568l4.706,0.433l0.003-0.01
		c-2.28-1.293-4.11-2.652-5.526-3.911c-2.387-2.123-6.141-1.386-7.598,1.457l-50.447,98.439c-0.79,1.542-0.313,3.43,1.124,4.398
		c3.638,2.448,11.267,6.547,22.315,7.226c12.101,0.745,21.232-1.905,24.921-3.222c1.134-0.405,2.113-1.145,2.821-2.119
		l29.888-41.143C122.46,269.201,93.981,240.346,105.97,215.987z"/>
	<path id="XMLID_8_" class="st32" d="M93.537,211.7c-10.19,19.326-41.615,21.61-60.708-4.828
		c-19.093-26.436-28.582-81.763-27.75-100.286L0.004,219.496c-0.072,1.595,0.841,3.07,2.3,3.718l67.713,30.061
		c1.032,0.458,2.243,0.033,2.761-0.971l20.781-40.243L93.537,211.7z"/>
	<path id="XMLID_7_" class="st4" d="M162.209,149.935c0,0-2.504-13.939-18.291-19.925c-15.787-5.986-46.845-11.56-68.926-21.442
		S42.387,88.792,42.387,88.792c-0.606-2.064-0.869-4.137-0.806-6.22c0,0,7.991,9.722,24.568,18.784
		c16.501,9.021,37.158,14.04,47.974,16.46c10.816,2.419,32.551,8.077,39.946,16.186
		C163.897,144.779,162.209,149.935,162.209,149.935z"/>
	<path id="XMLID_6_" class="st4" d="M156.335,149.935c0,0-3.082-13.5-18.473-17.784c-26.082-7.259-40.901-7.309-66.888-19.264
		c-25.987-11.955-37.609-21.178-37.609-21.178s5.359,9.23,36.493,23.715c31.134,14.484,58.923,16.043,69.007,19.89
		C151.716,140.217,156.335,149.935,156.335,149.935z"/>
	<path id="XMLID_5_" class="st4" d="M145.204,148.591c0,0-5.477-8.447-16.042-10.696c-10.565-2.249-41.925-5.63-62.346-18.617
		c0,0,7.254,7.799,33.164,15.456S131.699,138.563,145.204,148.591z"/>
	<path id="XMLID_4_" class="st4" d="M171.602,149.935c2.953-8.399,11.285-18.78,28.438-22.19c17.154-3.41,36.05-4.758,45.741-12.321
		c0,0-3.851,10.164-29.399,13.239C190.834,131.739,178.631,138.453,171.602,149.935z"/>
	<path id="XMLID_3_" class="st4" d="M239.111,126.632c-6.786,5.715-14.741,7.143-31.033,8.751
		c-16.292,1.607-25.051,8.925-26.297,14.552c0,0,7.014-10.04,24.376-11.032C220.806,138.065,230.806,136.509,239.111,126.632z"/>
	<path id="XMLID_2_" class="st34" d="M259.602,121.543l-57.584,33.406c0.546,0.47,0.919,0.983,1.084,1.549l0.006-0.001
		c0,0,38.715-22.257,45.001-26.036c5.343-3.212,9.283-5.47,10.739-6.323c1.473-0.862,3.217-1.585,3.24-1.065l0,0
		C262.16,121.887,260.852,120.818,259.602,121.543z"/>
</g>
</svg>